<svg xmlns="http://www.w3.org/2000/svg" viewBox="0 0 32 32" width="32" height="32">
<defs>
<path id="b" d="M13.9 9.2C19.4 9.1 25.6 12.4 25.6 18.4C25.6 24.5 20.5 28.6 14.2 28.6C12.3 28.6 10.5 28.4 8.9 28C7.1 28.7 4.8 29.5 3.1 29.8C4.5 28.5 5.3 26.9 5.1 25.5C3.1 23.7 2.1 21.3 2.1 18.6C2.1 13.1 7.3 9.2 13.9 9.2Z"/>
<path id="l" d="M24 11.4C20.2 10.6 17.4 6.4 18.4 1.6C23.2 3 25.6 7.2 24 11.4Z"/>
<path id="r" d="M24.2 11.5C24.4 8.3 27.2 5.7 30.4 5.9C29.9 9.3 27.6 11.7 24.2 11.5Z"/>
<path id="s" d="M24.2 13.2Q24.3 12.2 24 11.2"/>
</defs>
<g transform="translate(-.3 .3)">
<g fill="#f6f1e7" stroke="#f6f1e7" stroke-width="3.6" stroke-linejoin="round" stroke-linecap="round">
<use href="#b"/><use href="#l"/><use href="#r"/><use href="#s"/>
</g>
<use href="#b" fill="#abbf90" stroke="#2f4a35" stroke-width="1.7" stroke-linejoin="round"/>
<use href="#s" fill="none" stroke="#2f4a35" stroke-width="1.4" stroke-linecap="round"/>
<use href="#l" fill="#2f4a35"/>
<use href="#r" fill="#2f4a35"/>
<path d="M23.4 10.4C21.6 8.2 20 5.6 19.4 3M25.2 10.6C26.6 9.2 28 7.8 29.4 6.8" fill="none" stroke="#6f9a6c" stroke-width=".6" stroke-linecap="round"/>
<circle cx="21" cy="20.1" r="2.2" fill="#c96d48"/>
</g>
</svg>
